<svg width="12" height="12" viewBox="0 0 12 12" fill="none" xmlns="http://www.w3.org/2000/svg">
<g opacity="0.5">
<circle cx="6" cy="6" r="5.5" stroke="white"/>
<path d="M6.78732 8.26702V6.78732H8.26702C8.54316 6.78732 8.76702 6.56346 8.76702 6.28732V5.50477C8.76702 5.22862 8.54317 5.00477 8.26702 5.00477H6.78732V3.52871C6.78732 3.25257 6.56346 3.02871 6.28732 3.02871H5.50477C5.22862 3.02871 5.00477 3.25257 5.00477 3.52871V5.00477H3.52871C3.25257 5.00477 3.02871 5.22862 3.02871 5.50477V6.28732C3.02871 6.56346 3.25257 6.78732 3.52871 6.78732H5.00477V8.26702C5.00477 8.54317 5.22862 8.76702 5.50477 8.76702H6.28732C6.56346 8.76702 6.78732 8.54316 6.78732 8.26702Z" stroke="white" stroke-width="0.8"/>
</g>
</svg>
